# xmcd CD database file
#
# Track frame offsets:
#	150
#	17402
#	34615
#	52802
#	66022
#	83105
#	98665
#	113102
#
# Disc length: 1763 seconds
#
# Revision: 0
# Processed by: cddbd v1.5.1PL2 Copyright (c) Steve Scherf et al.
# Submitted via: CDex 1.51
#
DISCID=5106e108
DTITLE=Various Artist - Crown Royal 2 Country Music Tour
DYEAR=1999
DGENRE=Country
TTITLE0=Chely Wright - Shut Up And Drive
TTITLE1=Mark Chesnutt - This Heartache Never Sleeps
TTITLE2=Keith Harling - Papa Bear
TTITLE3=Gary Allan - It Would Be You
TTITLE4=Chely Wright - I Already Do
TTITLE5=Mark Chesnutt - Wherever You Are
TTITLE6=Keith Harling - Write It In Stone
TTITLE7=Gary Allan - No Man In His Wrong Heart
EXTD=YEAR: 1999
EXTT0=
EXTT1=
EXTT2=
EXTT3=
EXTT4=
EXTT5=
EXTT6=
EXTT7=
PLAYORDER=
